<?xml version="1.0" encoding="UTF-8" standalone="no"?>
<svg
   width="400"
   height="400"
   viewBox="0 0 80 80"
   version="1.1"
   xml:space="preserve"
   style="clip-rule:evenodd;fill-rule:evenodd;stroke-linejoin:round;stroke-miterlimit:2"
   id="svg13"
   xmlns="http://www.w3.org/2000/svg"
   xmlns:svg="http://www.w3.org/2000/svg">

    <defs>
      <filter id="shadow" x="-50%" y="-50%" width="200%" height="200%">
        <feDropShadow dx="2" dy="2" stdDeviation="1" flood-color="rgba(20,20,20,0.75)" />
      </filter>
    </defs>

    <style>
      #clock {
         fill: rgb(246,246,246);
      }
      .hand {
        transform-origin: 50% 50%;
      }
      .hour   {animation: rotate-hour 60s linear infinite; }
      .minute {animation: rotate-minute 5s linear infinite; }

      @keyframes rotate-minute { from { transform: rotate(0deg); } to { transform: rotate(360deg); } }
      @keyframes rotate-hour   { from { transform: rotate(0deg); } to { transform: rotate(360deg); } }
    </style>

    <g
   id="clock" filter="url(#shadow)">
        <path class="hand hour"
   d="m 44.000105,41.757742 c -0.345097,0.03587 -0.8549,0.0852 -1.52941,0.147982 -0.674509,0.06278 -1.356861,0.09417 -2.047056,0.09417 -0.690195,0 -1.309802,-0.0269 -1.858821,-0.08072 -0.549019,-0.05381 -1.011764,-0.161435 -1.388234,-0.32287 -0.37647,-0.161435 -0.666666,-0.381166 -0.870587,-0.659193 -0.203921,-0.278026 -0.305882,-0.641255 -0.305882,-1.089685 V 24.242051 c 0.345098,-0.03588 0.854901,-0.0852 1.52941,-0.147982 0.674509,-0.06278 1.356861,-0.09417 2.047056,-0.09417 0.690196,0 1.309803,0.02691 1.858822,0.08072 0.549019,0.05381 1.011763,0.161435 1.388233,0.32287 0.37647,0.161435 0.666666,0.381165 0.870587,0.659192 0.203922,0.278027 0.305882,0.641256 0.305882,1.089686 z"
   style="fill-rule:nonzero;stroke-width:0.247105"
   id="hour" />
        <path class="hand minute"
   d="m 42.000097,41.676956 c -0.172549,0.04783 -0.427451,0.113602 -0.764707,0.197309 -0.337256,0.08371 -0.678433,0.125561 -1.023531,0.125561 -0.345099,0 -0.654903,-0.03587 -0.929414,-0.107623 -0.27451,-0.07175 -0.505883,-0.215247 -0.694119,-0.430494 C 38.400091,41.246463 38.254992,40.953488 38.153031,40.582786 38.05107,40.212083 38.00009,39.727779 38.00009,39.129871 v -20.80717 c 0.172549,-0.04783 0.427452,-0.113603 0.764707,-0.19731 0.337256,-0.08371 0.678433,-0.12556 1.023531,-0.12556 0.345099,0 0.654904,0.03587 0.929414,0.107623 0.27451,0.07175 0.505883,0.215247 0.694119,0.430493 0.188236,0.215247 0.333334,0.508222 0.435295,0.878924 0.101961,0.370702 0.152941,0.855007 0.152941,1.452914 z"
   style="fill-rule:nonzero;stroke-width:0.20176"
   id="minute" />
        <path
   id="frame"
   d="M 4,39.944 C 4,34.121 4.929,28.97 6.787,24.491 8.645,20.012 11.185,16.261 14.408,13.238 17.63,10.215 21.422,7.919 25.782,6.351 30.142,4.784 34.863,4 39.943,4 c 5.081,0 9.801,0.784 14.161,2.351 4.36,1.568 8.171,3.864 11.432,6.887 3.26,3.023 5.819,6.774 7.677,11.253 1.858,4.479 2.787,9.63 2.787,15.453 0,5.823 -0.91,10.992 -2.73,15.509 -1.82,4.516 -4.341,8.286 -7.564,11.309 -3.223,3.023 -7.033,5.319 -11.431,6.887 C 49.877,75.216 45.1,76 39.943,76 34.787,76 30.009,75.198 25.611,73.593 21.213,71.988 17.422,69.655 14.237,66.594 11.052,63.533 8.55,59.764 6.73,55.285 4.91,50.806 4,45.692 4,39.944 Z m 11,-0.013 c 0,8.402 2.259,14.681 6.777,18.836 C 26.294,62.922 32.338,65 39.908,65 47.601,65 53.706,62.922 58.223,58.767 62.741,54.612 65,48.333 65,39.931 65,31.62 62.772,25.388 58.315,21.233 53.858,17.078 47.784,15 40.092,15 32.521,15 26.447,17.054 21.868,21.163 17.289,25.272 15,31.528 15,39.931 Z m 20,0.055 c 0,1.681 0.452,2.936 1.355,3.767 0.904,0.831 2.113,1.247 3.627,1.247 1.538,0 2.759,-0.416 3.663,-1.247 C 44.548,42.922 45,41.667 45,39.986 45,38.324 44.554,37.078 43.663,36.247 42.772,35.416 41.557,35 40.018,35 38.504,35 37.289,35.411 36.374,36.233 35.458,37.054 35,38.306 35,39.986 Z" />
    </g>
</svg>
